<?xml version="1.0" encoding="UTF-8" standalone="no"?>
<svg
   width="205.86736pt"
   height="199.4585pt"
   version="1.1"
   viewBox="0 0 617.60207 598.37549"
   id="svg155"
   sodipodi:docname="edsteva_logo_small.svg"
   inkscape:version="1.1.2 (b8e25be833, 2022-02-05)"
   inkscape:export-filename="/Users/adamremaki/Documents/AP-HP Job/EDS-Temporal_Variability/edsteva/docs/assets/logo/edsteva_logo.png"
   inkscape:export-xdpi="374.76212"
   inkscape:export-ydpi="374.76212"
   xmlns:inkscape="http://www.inkscape.org/namespaces/inkscape"
   xmlns:sodipodi="http://sodipodi.sourceforge.net/DTD/sodipodi-0.dtd"
   xmlns="http://www.w3.org/2000/svg"
   xmlns:svg="http://www.w3.org/2000/svg">
  <sodipodi:namedview
     id="namedview157"
     pagecolor="#ffffff"
     bordercolor="#666666"
     borderopacity="1.0"
     inkscape:pageshadow="2"
     inkscape:pageopacity="0.0"
     inkscape:pagecheckerboard="true"
     inkscape:document-units="pt"
     showgrid="false"
     inkscape:zoom="1.9852363"
     inkscape:cx="40.045611"
     inkscape:cy="121.39613"
     inkscape:window-width="1920"
     inkscape:window-height="1137"
     inkscape:window-x="-988"
     inkscape:window-y="-1208"
     inkscape:window-maximized="1"
     inkscape:current-layer="svg155"
     fit-margin-top="0"
     fit-margin-left="0"
     fit-margin-right="0"
     fit-margin-bottom="0"
     scale-x="3" />
  <defs
     id="defs59">
    <symbol
       id="s"
       overflow="visible">
      <path
         d="M 3.6562,-0.21875 C 3.4687,-0.125 3.26948,-0.05078 3.06245,0 2.86323,0.050781 2.6562,0.078125 2.43745,0.078125 c -0.66797,0 -1.1992,-0.17969 -1.5938,-0.54688 -0.38672,-0.375 -0.57812,-0.87891 -0.57812,-1.5156 0,-0.64453 0.19141,-1.1484 0.57812,-1.5156 0.39453,-0.375 0.92578,-0.5625 1.5938,-0.5625 0.21875,0 0.42578,0.027344 0.625,0.078125 0.20703,0.054687 0.40625,0.125 0.59375,0.21875 v 0.82812 c -0.1875,-0.125 -0.375,-0.21875 -0.5625,-0.28125 -0.17969,-0.0625 -0.37109,-0.09375 -0.57812,-0.09375 -0.36719,0 -0.65625,0.12109 -0.875,0.35938 -0.21094,0.23047 -0.3125,0.55469 -0.3125,0.96875 0,0.40625 0.10156,0.73047 0.3125,0.96875 0.21875,0.23047 0.50781,0.34375 0.875,0.34375 0.20703,0 0.39844,-0.023437 0.57812,-0.078125 0.1875,-0.0625 0.375,-0.16016 0.5625,-0.29688 z"
         id="path2" />
    </symbol>
    <symbol
       id="b"
       overflow="visible">
      <path
         d="M 2.6875,-2.1719 C 2.601562,-2.210963 2.51953,-2.242213 2.4375,-2.26565 2.351562,-2.285181 2.26953,-2.2969 2.1875,-2.2969 c -0.25,0 -0.44531,0.085937 -0.57812,0.25 -0.125,0.15625 -0.1875,0.38281 -0.1875,0.67188 V -2e-5 H 0.45313 v -2.9844 h 0.96875 v 0.48438 c 0.11328,-0.19531 0.25,-0.33594 0.40625,-0.42188 0.16406,-0.09375 0.35938,-0.14062 0.57812,-0.14062 h 0.10938 c 0.039063,0 0.09375,0.00781 0.15625,0.015625 z"
         id="path5" />
    </symbol>
    <symbol
       id="a"
       overflow="visible">
      <path
         d="m 3.4375,-1.5 v 0.26562 H 1.2031 c 0.03125,0.23047 0.11328,0.40234 0.25,0.51562 0.13281,0.10547 0.32812,0.15625 0.57812,0.15625 0.20703,0 0.41406,-0.023438 0.625,-0.078125 0.20703,-0.0625 0.42188,-0.15625 0.64062,-0.28125 v 0.73438 c -0.21875,0.09375 -0.44531,0.16406 -0.67188,0.20312 -0.23047,0.039062 -0.45312,0.0625 -0.67188,0.0625 -0.54297,0 -0.96484,-0.13281 -1.2656,-0.40625 -0.30469,-0.28125 -0.45312,-0.67188 -0.45312,-1.1719 0,-0.47656 0.14453,-0.85938 0.4375,-1.1406 0.30078,-0.28125 0.70703,-0.42188 1.2188,-0.42188 0.46875,0 0.84375,0.14062 1.125,0.42188 0.28125,0.28126 0.42188,0.66406 0.42188,1.1406 z M 2.46875,-1.82812 C 2.46875,-2.0039 2.410156,-2.14453 2.29687,-2.25 2.1914,-2.36328 2.05468,-2.42188 1.89062,-2.42188 c -0.1875,0 -0.33984,0.054687 -0.45312,0.15625 -0.11719,0.10547 -0.1875,0.25 -0.21875,0.4375 z"
         id="path8" />
    </symbol>
    <symbol
       id="i"
       overflow="visible">
      <path
         d="m 1.7969,-1.3438 c -0.19922,0 -0.35156,0.039062 -0.45312,0.10938 -0.09375,0.0625 -0.14062,0.16406 -0.14062,0.29688 0,0.11719 0.035156,0.21094 0.10938,0.28125 0.082031,0.0625 0.19531,0.09375 0.34375,0.09375 0.17578,0 0.32812,-0.0625 0.45312,-0.1875 0.125,-0.125 0.1875,-0.28516 0.1875,-0.48438 V -1.3438 Z M 3.2657,-1.70318 V -8e-5 H 2.29695 v -0.4375 c -0.125,0.17969 -0.27344,0.30859 -0.4375,0.39062 -0.15625,0.082031 -0.35156,0.125 -0.57812,0.125 -0.3125,0 -0.57031,-0.085938 -0.76562,-0.26562 -0.1875,-0.1875 -0.28125,-0.42188 -0.28125,-0.70312 0,-0.35156 0.11719,-0.61328 0.35938,-0.78125 0.23828,-0.16406 0.61719,-0.25 1.1406,-0.25 h 0.5625 v -0.0625 c 0,-0.15625 -0.0625,-0.26562 -0.1875,-0.32812 -0.11719,-0.070312 -0.29688,-0.10938 -0.54688,-0.10938 -0.21094,0 -0.40234,0.023437 -0.57812,0.0625 -0.17969,0.042969 -0.33984,0.10156 -0.48438,0.17188 v -0.71875 c 0.19531,-0.050781 0.39844,-0.085938 0.60938,-0.10938 0.20703,-0.03125 0.41406,-0.046875 0.625,-0.046875 0.53906,0 0.92969,0.10938 1.1719,0.32812 0.23828,0.21094 0.35938,0.55469 0.35938,1.0312 z"
         id="path11" />
    </symbol>
    <symbol
       id="c"
       overflow="visible">
      <path
         d="m 1.5,-3.8438 v 0.85938 h 0.98438 v 0.67188 H 1.5 v 1.2812 c 0,0.13672 0.023438,0.23047 0.078125,0.28125 0.0625,0.042969 0.17578,0.0625 0.34375,0.0625 h 0.48438 V -9e-5 h -0.8125 c -0.38672,0 -0.65625,-0.078125 -0.8125,-0.23438 -0.15625,-0.156255 -0.23438,-0.42188 -0.23438,-0.79688 v -1.2812 h -0.46875 v -0.67188 h 0.46875 v -0.85938 z"
         id="path14" />
    </symbol>
    <symbol
       id="h"
       overflow="visible">
      <path
         d="M 2.5,-2.5469 V -4.1563 H 3.45312 V -1e-4 H 2.5 v -0.4375 c -0.13672,0.17969 -0.28125,0.30859 -0.4375,0.39062 -0.15625,0.082031 -0.33984,0.125 -0.54688,0.125 -0.375,0 -0.68359,-0.14453 -0.92188,-0.4375 -0.23047,-0.28906 -0.34375,-0.67188 -0.34375,-1.1406 0,-0.45703 0.11328,-0.83203 0.34375,-1.125 0.23828,-0.28906 0.54688,-0.4375 0.92188,-0.4375 0.19531,0 0.375,0.042969 0.53125,0.125 0.16406,0.085938 0.31641,0.21484 0.45312,0.39062 z m -0.64062,1.9375 c 0.20703,0 0.36328,-0.070313 0.46875,-0.21875 0.11328,-0.15625 0.17188,-0.37891 0.17188,-0.67188 0,-0.28125 -0.058594,-0.49219 -0.17188,-0.64062 -0.10547,-0.15625 -0.26172,-0.23438 -0.46875,-0.23438 -0.19922,0 -0.35547,0.078125 -0.46875,0.23438 -0.10547,0.14844 -0.15625,0.35938 -0.15625,0.64062 0,0.29297 0.050781,0.51562 0.15625,0.67188 0.11328,0.14844 0.26953,0.21875 0.46875,0.21875 z"
         id="path17" />
    </symbol>
    <symbol
       id="g"
       overflow="visible">
      <path
         d="m 2.0469,-0.60938 c 0.20703,0 0.36328,-0.070313 0.46875,-0.21875 0.11328,-0.15625 0.17188,-0.37891 0.17188,-0.67188 0,-0.28125 -0.058594,-0.49219 -0.17188,-0.64062 -0.10547,-0.15625 -0.26172,-0.23438 -0.46875,-0.23438 -0.19922,0 -0.35547,0.078125 -0.46875,0.23438 -0.10547,0.14844 -0.15625,0.35938 -0.15625,0.64062 0,0.29297 0.050781,0.51562 0.15625,0.67188 0.11328,0.14844 0.26953,0.21875 0.46875,0.21875 z m -0.625,-1.9375 c 0.125,-0.17578 0.26562,-0.30469 0.42188,-0.39062 0.16406,-0.082031 0.35156,-0.125 0.5625,-0.125 0.36328,0 0.66406,0.14844 0.90625,0.4375 0.23828,0.29297 0.35938,0.66797 0.35938,1.125 0,0.46875 -0.12109,0.85156 -0.35938,1.1406 -0.24219,0.29297 -0.54297,0.4375 -0.90625,0.4375 -0.21094,0 -0.39844,-0.042969 -0.5625,-0.125 C 1.68753,-0.128931 1.5469,-0.25784 1.4219,-0.43752 V -2e-5 H 0.45315 v -4.1562 H 1.4219 Z"
         id="path20" />
    </symbol>
    <symbol
       id="f"
       overflow="visible">
      <path
         d="m 0.0625,-2.9844 h 0.95312 l 0.8125,2.0156 0.6875,-2.0156 H 3.46874 L 2.20314,0.2812 C 2.07814,0.61323 1.9297,0.84761 1.76564,0.98432 1.59767,1.11713 1.37502,1.18744 1.09376,1.18744 H 0.54688 V 0.54682 h 0.29688 c 0.16406,0 0.28516,-0.027344 0.35938,-0.078125 0.070313,-0.054688 0.12891,-0.14062 0.17188,-0.26562 l 0.03125,-0.09375 z"
         id="path23" />
    </symbol>
    <symbol
       id="e"
       overflow="visible">
      <path
         d="M 0.45312,-2.9844 H 1.42187 V 0 H 0.45312 Z m 0,-1.1719 h 0.96875 v 0.78125 H 0.45312 Z"
         id="path26" />
    </symbol>
    <symbol
       id="k"
       overflow="visible">
      <path
         d="M 3.4688,-1.8281 V 0 H 2.50005 v -1.3906 c 0,-0.25781 -0.00781,-0.4375 -0.015625,-0.53125 -0.011719,-0.10156 -0.03125,-0.17578 -0.0625,-0.21875 -0.03125,-0.0625 -0.085937,-0.10938 -0.15625,-0.14062 -0.0625,-0.039062 -0.13281,-0.0625 -0.20312,-0.0625 -0.21094,0 -0.37109,0.078125 -0.48438,0.23438 -0.10547,0.15625 -0.15625,0.37109 -0.15625,0.64062 V 8e-5 h -0.96875 v -2.9844 h 0.96875 v 0.4375 c 0.13281,-0.17578 0.28516,-0.30469 0.45312,-0.39062 0.16406,-0.082031 0.34375,-0.125 0.53125,-0.125 0.34375,0 0.60156,0.10938 0.78125,0.32812 0.1875,0.21094 0.28125,0.51172 0.28125,0.90625 z"
         id="path29" />
    </symbol>
    <symbol
       id="j"
       overflow="visible">
      <path
         d="m 2.4219,-4.1562 v 0.625 H 1.90628 c -0.13672,0 -0.23438,0.027344 -0.29688,0.078125 -0.054687,0.054687 -0.078125,0.13672 -0.078125,0.25 v 0.21875 h 0.82812 v 0.67188 h -0.82812 v 2.3125 h -0.95312 v -2.3125 h -0.46875 v -0.67188 h 0.46875 v -0.21875 c 0,-0.32031 0.085937,-0.5625 0.26562,-0.71875 0.1875,-0.15625 0.47266,-0.23438 0.85938,-0.23438 z"
         id="path32" />
    </symbol>
    <symbol
       id="d"
       overflow="visible">
      <path
         d="m 1.875,-2.375 c -0.21094,0 -0.37109,0.078125 -0.48438,0.23438 -0.10547,0.14844 -0.15625,0.35938 -0.15625,0.64062 0,0.29297 0.050781,0.51562 0.15625,0.67188 0.11328,0.14844 0.27344,0.21875 0.48438,0.21875 0.20703,0 0.36719,-0.070313 0.48438,-0.21875 C 2.47266,-0.98437 2.53126,-1.20703 2.53126,-1.5 2.53126,-1.78125 2.472666,-1.99219 2.35938,-2.14062 2.24219,-2.29687 2.08204,-2.375 1.875,-2.375 Z m 0,-0.6875 c 0.51953,0 0.92188,0.14062 1.2031,0.42188 0.28906,0.27344 0.4375,0.65234 0.4375,1.1406 0,0.5 -0.14844,0.89062 -0.4375,1.1719 C 2.79685,-0.05468 2.39451,0.07813 1.875,0.07813 1.36328,0.07813 0.96094,-0.05468 0.6719,-0.32812 0.37893,-0.60937 0.2344,-1 0.2344,-1.50002 c 0,-0.48828 0.14453,-0.86719 0.4375,-1.1406 C 0.96096,-2.92187 1.36331,-3.0625 1.875,-3.0625 Z"
         id="path35" />
    </symbol>
    <symbol
       id="r"
       overflow="visible">
      <path
         d="m 3.2344,-2.5 c 0.11328,-0.17578 0.25391,-0.3125 0.42188,-0.40625 0.16406,-0.10156 0.35156,-0.15625 0.5625,-0.15625 0.33203,0 0.58594,0.10938 0.76562,0.32812 0.1875,0.21094 0.28125,0.51172 0.28125,0.90625 V -3e-5 H 4.2969 v -1.5625 c 0.00781,-0.019531 0.015625,-0.039062 0.015625,-0.0625 v -0.10938 c 0,-0.21875 -0.03125,-0.375 -0.09375,-0.46875 -0.0625,-0.09375 -0.16406,-0.14062 -0.29688,-0.14062 -0.1875,0 -0.33594,0.078125 -0.4375,0.23438 -0.09375,0.14844 -0.14062,0.35938 -0.14062,0.64062 V 2e-5 h -0.96875 v -1.5625 c 0,-0.33203 -0.03125,-0.54688 -0.09375,-0.64062 -0.054688,-0.09375 -0.15234,-0.14062 -0.29688,-0.14062 -0.17969,0 -0.32031,0.078125 -0.42188,0.23438 -0.09375,0.14844 -0.14062,0.35938 -0.14062,0.64062 V 8e-5 h -0.96875 v -2.9844 h 0.96875 v 0.4375 c 0.11328,-0.17578 0.24219,-0.30469 0.39062,-0.39062 0.15625,-0.082031 0.32812,-0.125 0.51562,-0.125 0.20703,0 0.39062,0.054688 0.54688,0.15625 0.15625,0.09375 0.27344,0.23047 0.35938,0.40625 z"
         id="path38" />
    </symbol>
    <symbol
       id="q"
       overflow="visible">
      <path
         d="M 3.4688,-1.8281 V 0 H 2.50005 v -1.3906 c 0,-0.25781 -0.00781,-0.4375 -0.015625,-0.53125 -0.011719,-0.10156 -0.03125,-0.17578 -0.0625,-0.21875 -0.03125,-0.0625 -0.085937,-0.10938 -0.15625,-0.14062 -0.0625,-0.039062 -0.13281,-0.0625 -0.20312,-0.0625 -0.21094,0 -0.37109,0.078125 -0.48438,0.23438 -0.10547,0.15625 -0.15625,0.37109 -0.15625,0.64062 V 8e-5 h -0.96875 v -4.1562 h 0.96875 v 1.6094 c 0.13281,-0.17578 0.28516,-0.30469 0.45312,-0.39062 0.16406,-0.082031 0.34375,-0.125 0.53125,-0.125 0.34375,0 0.60156,0.10938 0.78125,0.32812 0.1875,0.21094 0.28125,0.51172 0.28125,0.90625 z"
         id="path41" />
    </symbol>
    <symbol
       id="p"
       overflow="visible">
      <path
         d="M 0.5,-3.9844 H 1.6562 L 3.0937,-1.25 V -3.9844 H 4.07808 V 0 H 2.92188 L 1.48438,-2.7344 V 0 H 0.5 Z"
         id="path44" />
    </symbol>
    <symbol
       id="o"
       overflow="visible">
      <path
         d="m 0.42188,-1.1719 v -1.8125 h 0.96875 v 0.29688 0.60938 0.48438 c 0,0.24219 0.00391,0.41797 0.015625,0.53125 0.00781,0.10547 0.03125,0.17969 0.0625,0.21875 0.039062,0.0625 0.09375,0.11719 0.15625,0.15625 0.0625,0.03125 0.13281,0.046875 0.21875,0.046875 0.19531,0 0.35156,-0.078125 0.46875,-0.23438 0.11328,-0.15625 0.17188,-0.36719 0.17188,-0.64062 v -1.4688 h 0.95312 v 2.9844 h -0.95312 v -0.4375 c -0.14844,0.17969 -0.30469,0.30859 -0.46875,0.39062 -0.15625,0.082031 -0.33594,0.125 -0.53125,0.125 -0.34375,0 -0.60938,-0.10156 -0.79688,-0.3125 -0.17969,-0.21875 -0.26562,-0.53125 -0.26562,-0.9375 z"
         id="path47" />
    </symbol>
    <symbol
       id="n"
       overflow="visible">
      <path
         d="m 0.5,-3.9844 h 1.7031 c 0.50781,0 0.89844,0.11719 1.1719,0.34375 0.26953,0.21875 0.40625,0.53906 0.40625,0.95312 0,0.41797 -0.13672,0.74219 -0.40625,0.96875 -0.27344,0.21875 -0.66406,0.32812 -1.1719,0.32812 H 1.53122 V -6e-5 h -1.0312 z m 1.0312,0.75 v 1.1094 h 0.5625 c 0.19531,0 0.34766,-0.046875 0.45312,-0.14062 C 2.6601,-2.36718 2.7187,-2.50781 2.7187,-2.6875 2.7187,-2.86328 2.660106,-3 2.54682,-3.09375 2.44135,-3.1875 2.28901,-3.23437 2.0937,-3.23437 Z"
         id="path50" />
    </symbol>
    <symbol
       id="m"
       overflow="visible">
      <path
         d="m 0.45312,-2.9844 h 0.96875 v 2.9375 c 0,0.39453 -0.10156,0.69531 -0.29688,0.90625 C 0.93749,1.0781 0.66015,1.18747 0.29687,1.18747 H -0.18751 V 0.54685 h 0.17188 c 0.17578,0 0.29688,-0.042969 0.35938,-0.125 C 0.414062,0.347631 0.45313,0.19138 0.45313,-0.0469 Z m 0,-1.1719 h 0.96875 v 0.78125 H 0.45312 Z"
         id="path53" />
    </symbol>
    <symbol
       id="l"
       overflow="visible">
      <path
         d="m 2.875,-2.8906 v 0.76562 C 2.75,-2.207011 2.61719,-2.26951 2.48438,-2.31248 2.34766,-2.351542 2.21094,-2.37498 2.07813,-2.37498 c -0.27344,0 -0.48047,0.078125 -0.625,0.23438 -0.14844,0.15625 -0.21875,0.37109 -0.21875,0.64062 0,0.28125 0.070313,0.5 0.21875,0.65625 0.14453,0.15625 0.35156,0.23438 0.625,0.23438 0.14453,0 0.28516,-0.019531 0.42188,-0.0625 0.13281,-0.039063 0.25781,-0.10938 0.375,-0.20312 v 0.78125 c -0.14844,0.0625 -0.29688,0.10156 -0.45312,0.125 -0.15625,0.03125 -0.3125,0.046875 -0.46875,0.046875 -0.54297,0 -0.96484,-0.13281 -1.2656,-0.40625 -0.30469,-0.28125 -0.45312,-0.67188 -0.45312,-1.1719 0,-0.48828 0.14844,-0.86719 0.45312,-1.1406 0.30078,-0.28125 0.72266,-0.42188 1.2656,-0.42188 0.15625,0 0.3125,0.015625 0.46875,0.046875 0.15625,0.023437 0.30469,0.0625 0.45312,0.125 z"
         id="path56" />
    </symbol>
  </defs>
  <ellipse
     style="display:inline;fill:#006bb6;fill-opacity:1;stroke-width:1.54589"
     id="path23056"
     cx="280.7851"
     cy="269.6499"
     rx="276.36835"
     ry="269.60413"
     inkscape:export-filename="/Users/adamremaki/Documents/AP-HP Job/EDS-Temporal_Variability/edsteva/docs/assets/logo/edsteva_logo.png"
     inkscape:export-xdpi="200.21106"
     inkscape:export-ydpi="200.21106" />
  <g
     id="g153"
     transform="translate(-89.802,-10.28)"
     style="display:inline;fill:#e34b4b;fill-opacity:1">
    <path
       d="m 304.29241,187.72477 c -3.63462,-5.7449 -19.0177,5.1651 -23.93076,10.19721 -5.72097,5.85961 -5.8079,12.82428 -2.17322,18.56958 l 82.9059,115.85503 c 0.28694,0.50559 0.5739,0.81338 0.86084,1.12119 0.0957,0.0366 0.1913,0.27113 0.1913,0.27113 0.19129,0.27115 0.38259,0.54228 0.66954,0.65224 0.0956,0.0366 0.19129,0.27115 0.28694,0.30781 0.1913,0.0733 0.3826,0.34446 0.5739,0.41777 0.0956,0.0366 0.1913,0.0733 0.28693,0.30781 0.28695,0.10997 0.47826,0.1833 0.7652,0.49109 l 0.0957,0.0366 c 0.28693,0.10998 0.57389,0.21995 0.86084,0.13211 l 0.19129,0.0733 c 0.28695,0.10997 0.5739,0.0221 0.7652,-0.10235 l 0.0957,0.0366 0.86084,-0.2635 c 0.0957,0.0366 0.0957,0.0366 0.1913,-0.12452 0.19129,-0.1245 0.47824,-0.21234 0.66953,-0.33682 0.0957,0.0366 0.0957,-0.16117 0.1913,-0.12452 0.28694,-0.28566 0.47825,-0.41015 0.76519,-0.69582 0.0957,0.0366 0.0957,-0.16117 0.1913,-0.12451 0.0957,-0.16117 0.28694,-0.28566 0.38259,-0.44681 l 94.30076,-112.8742 40.18149,9.32739 c 2.39125,1.11429 4.68682,-0.18198 6.12154,-3.58827 l 41.98115,-79.77599 7.11732,11.98603 c 0,0 7.12915,16.51992 18.29813,13.68373 17.38848,-4.41554 17.20468,-17.14826 8.23745,-33.50261 l -13.11354,-23.91634 c -5.35394,-9.76446 -23.10802,-17.767198 -33.21475,-15.687446 l -41.57173,8.554586 c -8.36547,1.5194 -17.79521,8.69004 -12.37689,23.41775 3.00898,8.17881 16.08655,7.93633 20.67177,6.83154 l 14.50038,-3.9083 -29.47697,49.62307 -39.39763,-7.95515 c -2.00865,-0.96766 -3.82595,-0.0816 -5.26067,1.94012 l -78.83114,97.70311 z"
       id="path61"
       style="fill:#ffffff;fill-opacity:1;stroke-width:1.25763"
       sodipodi:nodetypes="csccccsssccscscccccccccccccssssscsscccccc" />
    <path
       d="m 196.88,280 c 0,-4.8125 -3.9375,-8.75 -8.75,-8.75 h -34.016 c -4.8125,0 -8.75,3.9375 -8.75,8.75 0,4.8125 3.9375,8.75 8.75,8.75 h 34.016 c 4.8125,0 8.75,-3.9375 8.75,-8.75 z"
       id="path63"
       style="fill:#ffffff;fill-opacity:1" />
    <path
       d="m 215.47,186.7 -29.531,-16.953 c -4.1562,-2.4062 -9.5156,-0.98438 -11.922,3.1719 -2.4064,4.15628 -0.98438,9.5156 3.1719,11.922 l 29.531,16.953 c 1.4219,0.76562 2.8438,1.2031 4.375,1.2031 3.0625,0 6.0156,-1.5312 7.5469,-4.375 2.4062,-4.1562 0.98438,-9.5156 -3.1719,-11.922 z"
       id="path65"
       style="fill:#ffffff;fill-opacity:1" />
    <path
       d="m 266.22,135.95 c 1.6406,2.8438 4.5938,4.375 7.5469,4.375 1.5312,0 2.9531,-0.32812 4.375,-1.2031 4.1562,-2.4062 5.5781,-7.7656 3.1719,-11.922 l -16.953,-29.422 c -2.4062,-4.1562 -7.7656,-5.5781 -11.922,-3.1719 -4.1564,2.4062 -5.5781,7.7656 -3.1719,11.922 z"
       id="path67"
       style="fill:#ffffff;fill-opacity:1" />
    <path
       d="m 252.44,465.39 c 1.4219,0.76562 2.8438,1.2031 4.375,1.2031 3.0625,0 6.0156,-1.5312 7.5469,-4.375 l 16.953,-29.422 c 2.4062,-4.1562 0.98438,-9.5156 -3.1719,-11.922 -4.15628,-2.4064 -9.5156,-0.98438 -11.922,3.1719 l -16.953,29.422 c -2.4062,4.1562 -0.98438,9.5156 3.1719,11.922 z"
       id="path69"
       style="fill:#ffffff;fill-opacity:1" />
    <path
       d="m 181.67,391.45 c 1.5312,0 2.9531,-0.32812 4.375,-1.2031 l 29.531,-17.062 c 4.1562,-2.4062 5.5781,-7.7656 3.1719,-11.922 -2.4062,-4.1564 -7.7656,-5.5781 -11.922,-3.1719 l -29.641,17.062 c -4.1562,2.4062 -5.5781,7.7656 -3.1719,11.922 1.6406,2.8438 4.5938,4.375 7.6562,4.375 z"
       id="path71"
       style="fill:#ffffff;fill-opacity:1" />
    <path
       d="M 359.52,532.22 C 220.4,532.22 107.3,419.02 107.3,280 107.3,140.98 220.39,27.78 359.52,27.78 c 4.8125,0 8.75,-3.9375 8.75,-8.75 0,-4.8125 -3.9375,-8.75 -8.75,-8.75 -72.078,0 -139.78,28 -190.64,78.969 -50.969,50.969 -79.078,118.67 -79.078,190.75 0,72.08 28,139.78 78.969,190.64 50.969,50.969 118.67,78.969 190.64,78.969 4.8125,0 8.75,-3.9375 8.75,-8.75 0,-4.8125 -3.8281,-8.6406 -8.6406,-8.6406 z"
       id="path73"
       style="fill:#006bb6;fill-opacity:1" />
    <path
       d="m 350.77,450.95 v 34.016 c 0,4.8125 3.9375,8.75 8.75,8.75 4.8125,0 8.75,-3.9375 8.75,-8.75 V 450.95 c 0,-4.8125 -3.9375,-8.75 -8.75,-8.75 -4.8125,0 -8.75,3.8281 -8.75,8.75 z"
       id="path75"
       style="fill:#ffffff;fill-opacity:1" />
    <path
       d="M 382.01009,118.83265 V 76.248103 c 0,-6.024757 -7.02902,-10.954103 -15.62005,-10.954103 -8.59102,0 -15.62004,4.929346 -15.62004,10.954103 v 42.584547 c 0,6.02475 7.02902,10.9541 15.62004,10.9541 8.59103,0 15.62005,-4.92935 15.62005,-10.9541 z"
       id="path79"
       style="fill:#ffffff;fill-opacity:1;stroke-width:1.49493" />
    <path
       d="m 193.32317,260.01717 -42.58071,0.57174 c -6.02422,0.0809 -10.85875,7.17546 -10.74341,15.76571 0.11534,8.59025 5.13862,15.55245 11.16284,15.47157 l 42.58071,-0.57174 c 6.02421,-0.0809 10.85874,-7.17546 10.7434,-15.7657 -0.11534,-8.59026 -5.13862,-15.55246 -11.16283,-15.47158 z"
       id="path79-9"
       style="fill:#ffffff;fill-opacity:1;stroke-width:1.49493" />
    <path
       d="m 343.51218,450.13856 0.25684,42.58377 c 0.0363,6.02465 7.09496,10.91152 15.68583,10.8597 8.59087,-0.0518 15.59002,-5.02346 15.5537,-11.04812 l -0.25684,-42.58377 c -0.0364,-6.02464 -7.09496,-10.91151 -15.68582,-10.85969 -8.59088,0.0518 -15.59003,5.02346 -15.55371,11.04811 z"
       id="path79-9-2"
       style="fill:#ffffff;fill-opacity:1;stroke-width:1.49493" />
    <path
       d="m 264.75739,415.91483 -24.45603,34.86181 c -3.46001,4.93214 -0.53658,13.0043 6.49646,17.93806 7.03303,4.93379 15.61822,4.93509 19.07822,0.003 l 24.45604,-34.86182 c 3.45992,-4.93219 0.53657,-13.00429 -6.49647,-17.93805 -7.03303,-4.93379 -15.61822,-4.93509 -19.07822,-0.003 z"
       id="path79-9-2-5"
       style="fill:#ffffff;fill-opacity:1;stroke-width:1.49493" />
    <path
       d="m 205.24687,349.23261 -35.17778,23.99931 c -4.97689,3.39534 -5.08752,11.97985 -0.24589,19.07663 4.84162,7.09679 12.87494,10.12521 17.85183,6.72986 l 35.17778,-23.99932 c 4.97683,-3.39541 5.08751,-11.97984 0.24588,-19.07661 -4.84162,-7.0968 -12.87494,-10.12522 -17.85182,-6.72987 z"
       id="path79-9-2-6"
       style="fill:#ffffff;fill-opacity:1;stroke-width:1.49493" />
    <path
       d="m 172.02751,190.82541 38.96742,17.17507 c 5.51301,2.42992 12.8586,-2.014 16.3235,-9.87531 3.46492,-7.8613 1.78919,-16.28136 -3.72384,-18.71127 l -38.96742,-17.17506 c -5.51304,-2.42983 -12.85859,2.014 -16.32349,9.8753 -3.46492,7.86131 -1.78919,16.28137 3.72383,18.71127 z"
       id="path79-9-2-7"
       style="fill:#ffffff;fill-opacity:1;stroke-width:1.49493" />
    <path
       d="m 241.75934,106.81592 24.01769,35.16524 c 3.39793,4.97511 11.98251,5.08126 19.07676,0.23591 7.09426,-4.84533 10.11848,-12.88023 6.72052,-17.85534 L 267.55662,89.196495 c -3.39802,-4.975051 -11.98251,-5.081252 -19.07675,-0.235913 -7.09427,4.845334 -10.11849,12.880228 -6.72053,17.855338 z"
       id="path79-9-2-2"
       style="fill:#ffffff;fill-opacity:1;stroke-width:1.49493" />
  </g>
  <path
     d="m 398.51956,321.91799 h 202.6125 c 4.5675,0 8.685,1.845 11.655,4.815 2.97,2.97 4.815,7.11 4.815,11.655 v 243.5175 c 0,4.5675 -1.845,8.685 -4.815,11.655 -2.97,2.97 -7.11,4.815 -11.655,4.815 h -202.6125 c -4.5675,0 -8.685,-1.845 -11.655,-4.815 -2.9925,-2.9475 -4.8375,-7.0875 -4.8375,-11.655 v -243.495 c 0,-4.5675 1.845,-8.7075 4.815,-11.6775 2.97,-2.97 7.11,-4.815 11.6775,-4.815 z m 105.3225,100.665 h -12.1275 c -4.275,0 -7.74,-3.4875 -7.74,-7.74 0,-15.9525 -4.0725,-33.4575 15.48,-38.475 8.865,-2.2725 11.16,7.4925 1.755,8.1675 -5.7375,0.405 -6.8625,4.1175 -7.0425,9.7425 h 9.9225 c 4.275,0 7.74,3.4875 7.74,7.74 v 12.5775 c 0,4.41 -3.6,7.9875 -7.9875,7.9875 z m -36.5625,0 h -12.1275 c -4.2525,0 -7.74,-3.4875 -7.74,-7.74 0,-15.9525 -4.0725,-33.4575 15.48,-38.475 8.865,-2.2725 11.16,7.4925 1.755,8.1675 -5.7375,0.405 -6.8625,4.1175 -7.0425,9.7425 h 9.9225 c 4.275,0 7.74,3.4875 7.74,7.74 v 12.5775 c -0.0225,4.41 -3.6,7.9875 -7.9875,7.9875 z m 63.99,-7.1775 c -3.915,0 -7.11,-3.1725 -7.11,-7.11 0,-3.915 3.1725,-7.11 7.11,-7.11 h 15.8175 c 3.915,0 7.11,3.1725 7.11,7.11 0,3.915 -3.1725,7.11 -7.11,7.11 z m -81.855,44.9775 c -3.915,0 -7.11,-3.1725 -7.11,-7.11 0,-3.915 3.1725,-7.11 7.11,-7.11 h 100.8 c 3.915,0 7.11,3.1725 7.11,7.11 0,3.915 -3.1725,7.11 -7.11,7.11 z m 0,41.9625 c -3.915,0 -7.11,-3.1725 -7.11,-7.11 0,-3.915 3.1725,-7.11 7.11,-7.11 h 100.8 c 3.915,0 7.11,3.1725 7.11,7.11 0,3.915 -3.1725,7.11 -7.11,7.11 z m 0,41.94 c -3.915,0 -7.11,-3.1725 -7.11,-7.11 0,-3.915 3.1725,-7.11 7.11,-7.11 h 100.8 c 3.915,0 7.11,3.1725 7.11,7.11 0,3.915 -3.1725,7.11 -7.11,7.11 z m 151.695,-208.17 h -202.59 c -0.63,0 -1.215,0.27 -1.6425,0.6975 -0.4275,0.4275 -0.6975,1.0125 -0.6975,1.6425 v 243.5175 c 0,0.63 0.27,1.215 0.6975,1.6425 0.4275,0.4275 1.0125,0.6975 1.6425,0.6975 h 202.6125 c 0.63,0 1.215,-0.27 1.6425,-0.6975 0.4275,-0.4275 0.6975,-1.0125 0.6975,-1.6425 v -243.5175 c 0,-0.63 -0.27,-1.215 -0.6975,-1.6425 -0.45,-0.4275 -1.035,-0.6975 -1.665,-0.6975 z"
     id="path205"
     style="display:inline;stroke-width:2.25" />
  <path
     style="display:inline;fill:#ffffff;stroke-width:0.566683"
     d="m 397.07489,583.28698 c -0.98982,-0.98982 -0.98982,-245.29068 0,-246.2805 0.98923,-0.98923 204.49008,-0.98923 205.47932,0 0.98984,0.98982 0.98984,245.29068 0,246.2805 -0.98924,0.98924 -204.49009,0.98924 -205.47932,0 z m 158.34938,-41.01153 c 1.67721,-1.77838 1.90862,-2.39146 1.90862,-5.05668 0,-3.67555 -1.76247,-6.16916 -4.9949,-7.06693 -2.86826,-0.79664 -102.1786,-0.79664 -105.04688,0 -3.27393,0.90931 -4.99489,3.38384 -4.99489,7.18204 0,2.87562 0.17505,3.3132 2.02374,5.05668 l 2.02374,1.90862 h 53.58596 53.58598 z m -0.0936,-41.91309 c 1.79661,-1.79661 2.00228,-2.31604 2.00228,-5.05668 0,-3.69839 -1.75462,-6.18844 -4.99491,-7.0884 -2.86825,-0.79663 -102.1786,-0.79663 -105.04688,0 -3.27392,0.90932 -4.99488,3.38385 -4.99488,7.18205 0,2.87561 0.17505,3.31319 2.02374,5.05667 l 2.02374,1.90863 h 53.49231 53.49231 z m -1.45383,-40.75335 c 2.35755,-1.21912 3.45611,-3.27963 3.45611,-6.48239 0,-3.43856 -1.84729,-5.96965 -4.99491,-6.84389 -2.86825,-0.79664 -102.1786,-0.79664 -105.04688,0 -3.14759,0.87424 -4.99488,3.40533 -4.99488,6.84389 0,3.14323 1.07727,5.22554 3.3396,6.45518 2.23916,1.21705 105.88969,1.24311 108.24096,0.0272 z m -82.33019,-38.03175 c 3.69418,-2.76006 3.90058,-3.45886 3.90058,-13.20685 0,-9.88803 -0.31995,-10.97782 -3.85592,-13.13384 -1.48324,-0.90438 -2.86195,-1.10457 -7.61942,-1.1063 l -5.80851,-0.002 0.002,-2.12506 c 0.002,-2.30733 1.59566,-5.41064 3.22598,-6.28308 0.56212,-0.3008 2.25686,-0.73208 3.7661,-0.95838 3.57221,-0.53564 5.66172,-2.30682 5.66172,-4.79916 0,-4.24278 -5.98068,-5.27326 -12.68177,-2.18507 -9.2511,4.26332 -11.63056,10.43469 -11.21076,29.07628 0.20093,8.92429 0.37971,10.57162 1.30044,11.98577 2.37019,3.64041 4.21647,4.17081 14.00418,4.02316 6.83696,-0.10327 7.93593,-0.25479 9.31524,-1.28534 z m 36.91843,-0.15143 c 3.15047,-2.2471 3.53322,-3.63769 3.53322,-12.83742 0,-13.01368 -1.1437,-14.45465 -11.47534,-14.45823 -6.79689,-0.002 -6.66409,0.0981 -5.48521,-4.14738 0.72084,-2.59585 2.20793,-4.20066 4.33742,-4.68074 6.55922,-1.47877 8.08965,-2.48144 8.08965,-5.29997 0,-3.88145 -5.38625,-5.14885 -11.70826,-2.75499 -4.4874,1.6992 -9.27182,6.42065 -10.62029,10.48055 -1.37099,4.12771 -1.94427,10.89427 -1.66163,19.613 0.31248,9.63916 0.51125,10.77676 2.24242,12.83411 2.03612,2.41981 3.96338,2.8193 12.96416,2.68722 7.29873,-0.1071 8.08164,-0.22207 9.78386,-1.43615 z m 42.52678,-6.91171 c 3.31589,-2.02164 4.43101,-6.68108 2.39724,-10.01659 -1.95555,-3.2072 -3.39501,-3.56929 -14.19001,-3.56929 -10.79503,0 -12.23449,0.36209 -14.19003,3.56929 -2.10512,3.45251 -1.00753,7.94047 2.45886,10.05406 1.61688,0.98588 2.89281,1.10619 11.73117,1.10619 8.94924,0 10.1,-0.1116 11.79277,-1.14366 z"
     id="path1832" />
  <path
     style="fill:#006bb6;fill-opacity:1;stroke-width:0.200353"
     d="m 382.02122,433.91398 c 0.049,-93.74224 0.0682,-98.37855 0.40939,-99.51291 1.03797,-3.45051 2.10438,-5.27688 4.45189,-7.62439 2.38791,-2.38791 4.35974,-3.52379 7.73649,-4.45671 1.21302,-0.33512 6.5689,-0.35309 105.26114,-0.35309 h 103.98308 l 1.58915,0.46017 c 5.41049,1.56672 9.50168,5.47314 11.37344,10.85976 l 0.66139,1.90336 0.0513,98.52345 0.0513,98.52347 h -7.11372 -7.11373 v -97.16166 c 0,-72.99792 -0.0576,-97.28786 -0.23121,-97.66914 -0.12713,-0.27914 -0.46528,-0.66654 -0.75134,-0.86095 -0.49496,-0.33635 -5.43438,-0.35588 -102.25377,-0.40427 -88.29406,-0.0441 -101.82513,-0.0135 -102.42597,0.23836 -0.38074,0.15908 -0.87421,0.5877 -1.0966,0.95247 -0.4041,0.66278 -0.40435,0.72522 -0.40512,97.78419 l -7.4e-4,97.121 h -7.11391 -7.11394 z"
     id="path20868" />
  <path
     style="fill:#006bb6;fill-opacity:1;stroke-width:0.200353"
     d="m 453.10435,422.32905 c -2.80962,-0.76957 -5.05038,-3.22587 -5.58601,-6.12335 -0.33291,-1.80088 -0.52776,-18.50634 -0.24624,-21.11007 0.7625,-7.05179 2.74799,-11.29126 6.82672,-14.57662 2.69069,-2.16729 7.27153,-4.1238 10.43676,-4.45761 3.14354,-0.33152 5.88065,1.2732 6.14309,3.60162 0.14265,1.26547 -0.24662,2.17892 -1.35214,3.17286 -1.11213,0.99992 -2.30683,1.44214 -4.70849,1.74289 -0.88155,0.11048 -2.02391,0.34036 -2.53858,0.51105 -1.256,0.41654 -2.63259,1.66936 -3.27335,2.97902 -0.55831,1.14115 -1.08168,3.61019 -1.09325,5.15745 l -0.007,0.93559 5.76016,0.074 c 5.49542,0.0707 5.81537,0.0958 6.96224,0.54873 1.65807,0.65469 3.65587,2.64882 4.32592,4.318 0.48141,1.19927 0.48256,1.22096 0.48256,9.11606 0,7.10291 -0.0369,8.01978 -0.36045,8.9469 -0.76079,2.18029 -2.69339,4.13941 -4.9489,5.0168 -0.79171,0.30798 -1.80504,0.35658 -8.31465,0.39868 -6.07381,0.0394 -7.61094,-0.007 -8.5084,-0.25207 z"
     id="path20907" />
  <path
     style="fill:#006bb6;fill-opacity:1;stroke-width:0.200353"
     d="m 489.91176,422.43214 c -2.75888,-0.6705 -5.14875,-3.10061 -5.7371,-5.83373 -0.1026,-0.47655 -0.29839,-4.56295 -0.43515,-9.08091 -0.27072,-8.94379 -0.14287,-12.20908 0.62622,-15.98861 1.33769,-6.57412 4.61185,-10.82417 10.44441,-13.55738 4.11156,-1.92676 7.82838,-2.41814 10.05406,-1.32921 2.65813,1.3005 3.21586,4.05302 1.22472,6.04416 -1.02064,1.02064 -2.48634,1.60233 -4.74493,1.88313 -2.07759,0.2583 -2.77068,0.45574 -3.87819,1.1048 -1.93377,1.13326 -2.76132,3.01891 -3.18945,7.26745 l -0.12622,1.2522 4.96867,0.001 c 2.73279,8.6e-4 5.54227,0.0945 6.2433,0.20835 3.22464,0.52324 5.66197,2.89015 6.2496,6.06902 0.13208,0.71422 0.18855,3.98392 0.1503,8.7071 l -0.0612,7.56339 -0.64939,1.31848 c -0.80953,1.64358 -2.21951,2.99378 -4.01416,3.84395 l -1.34703,0.63812 -7.51322,0.0356 c -4.13228,0.0203 -7.85169,-0.0468 -8.26538,-0.14738 z"
     id="path20946" />
  <path
     style="fill:#006bb6;fill-opacity:1;stroke-width:0.200353"
     d="m 529.28912,415.14547 c -5.11405,-1.62666 -6.80956,-7.71633 -3.23681,-11.6255 0.59592,-0.652 1.46003,-1.31983 2.13964,-1.65357 l 1.14003,-0.55982 9.38939,-0.0576 c 10.41374,-0.0639 10.63127,-0.0428 12.45757,1.21588 2.00032,1.37848 3.29033,4.17739 3.01298,6.53719 -0.28472,2.42251 -2.04249,4.84643 -4.26553,5.88211 -0.94583,0.44064 -1.09719,0.44777 -10.37642,0.48854 -7.41001,0.0326 -9.59649,-0.0158 -10.26085,-0.22716 z"
     id="path20985" />
  <path
     style="fill:#006bb6;fill-opacity:1;stroke-width:0.200353"
     d="m 468.92563,460.30363 c -19.37232,-0.1791 -22.21279,-0.29761 -23.30323,-0.97153 -1.02366,-0.63266 -2.11388,-1.92087 -2.7124,-3.20501 -0.70513,-1.51281 -0.73834,-4.21171 -0.07,-5.69217 0.63916,-1.41592 2.2282,-2.99284 3.70179,-3.67348 l 1.24666,-0.57584 51.47691,-0.0524 c 56.7812,-0.0578 52.7873,-0.14377 54.85313,1.18186 1.13792,0.73019 1.79172,1.47042 2.52254,2.85604 0.4818,0.9135 0.53974,1.23826 0.53987,3.02681 1.3e-4,1.73999 -0.0682,2.14848 -0.51964,3.10547 -0.28586,0.60608 -0.91699,1.499 -1.40247,1.98428 -1.5385,1.53791 -1.70854,1.57356 -8.59984,1.80303 -8.38269,0.27912 -56.36702,0.41056 -77.73328,0.21285 z"
     id="path21024" />
  <path
     style="fill:#006bb6;fill-opacity:1;stroke-width:0.801412"
     d="m 444.36184,500.05856 c -2.68254,-2.85543 -2.56546,-6.97257 0.2792,-9.81722 l 2.18203,-2.18203 h 52.7098 c 48.76294,0 52.8694,0.10463 54.841,1.39642 2.7563,1.80598 3.60903,5.93476 1.90596,9.22815 -0.68389,1.32246 -1.82721,2.62849 -2.54072,2.9023 -0.71352,0.2738 -25.18716,0.49783 -54.3859,0.49783 h -53.08857 z"
     id="path21063" />
  <path
     style="display:inline;fill:#006bb6;fill-opacity:1;stroke-width:0.801412"
     d="m 445.86988,543.35284 c -4.12081,-2.25675 -4.60935,-8.70258 -0.8818,-11.63466 1.96105,-1.54256 3.42969,-1.58479 55.12923,-1.58479 h 53.11451 l 2.07477,2.46573 c 2.60696,3.0982 2.65671,6.38518 0.14085,9.31038 l -1.93387,2.24859 -52.76244,0.17752 c -44.78573,0.15075 -53.08276,0.002 -54.88132,-0.98282 z"
     id="path21102" />
  <path
     style="fill:#000000;fill-opacity:1;stroke-width:0.801412"
     d="m 390.85114,596.54776 c -3.78457,-1.8733 -6.66218,-5.23845 -8.0667,-9.43341 -0.66624,-1.98991 -0.91208,-36.28902 -0.91208,-127.24974 0,-110.76654 0.13747,-124.8548 1.24461,-127.50512 1.65049,-3.95111 4.84484,-7.25492 8.77302,-9.0736 3.06808,-1.42047 7.71433,-1.48493 108.2648,-1.50176 l 105.05914,-0.018 3.53205,1.84885 c 2.16772,1.1347 4.53812,3.33661 6.13663,5.70044 l 2.60458,3.8516 v 126.57217 c 0,114.98636 -0.11858,126.80694 -1.29585,129.13695 -1.82911,3.6202 -4.24233,6.08488 -7.68809,7.85196 -2.87833,1.47609 -6.3495,1.5248 -108.59119,1.52419 l -105.61783,-6.2e-4 z M 603.0618,460.49638 c 0,-111.72296 -0.11925,-123.37735 -1.26767,-123.81801 -0.6972,-0.26755 -46.78636,-0.48645 -102.42033,-0.48645 -77.60575,0 -101.37652,0.22387 -102.11437,0.96169 -0.73957,0.7396 -0.96169,29.21292 -0.96169,123.28373 0,67.27712 0.24043,122.56248 0.53428,122.8563 0.29385,0.29388 46.81575,0.53429 103.38204,0.53429 H 603.0618 Z"
     id="path21141" />
</svg>
